<svg width="20" height="20" viewBox="0 0 20 20" fill="none" xmlns="http://www.w3.org/2000/svg">
<path fill-rule="evenodd" clip-rule="evenodd" d="M11.7625 10L15.875 5.8875C16.1125 5.6625 16.25 5.35 16.25 5C16.25 4.3125 15.6875 3.75 15 3.75C14.65 3.75 14.3375 3.8875 14.1125 4.1125L10 8.2375L5.8875 4.1125C5.6625 3.8875 5.35 3.75 5 3.75C4.3125 3.75 3.75 4.3125 3.75 5C3.75 5.35 3.8875 5.6625 4.1125 5.8875L8.2375 10L4.125 14.1125C3.8875 14.3375 3.75 14.65 3.75 15C3.75 15.6875 4.3125 16.25 5 16.25C5.35 16.25 5.6625 16.1125 5.8875 15.8875L10 11.7625L14.1125 15.875C14.3375 16.1125 14.65 16.25 15 16.25C15.6875 16.25 16.25 15.6875 16.25 15C16.25 14.65 16.1125 14.3375 15.8875 14.1125L11.7625 10Z" fill="#677489"/>
</svg>
